<svg xmlns="http://www.w3.org/2000/svg" viewBox="0 0 40 40" width="80" height="80" baseProfile="basic"><path fill="#b2b2b2" d="M18.834 2.02a9 9 0 0 0-7.821 10.041L12 20l3.53-4-.548-4.432a5 5 0 0 1 9.924-1.234l.247 1.985 3.969-.493-.247-1.985A8.998 8.998 0 0 0 18.834 2.02z"/><linearGradient id="a" x1="100.142" x2="100.523" y1="-.56" y2="15.088" gradientTransform="rotate(-7.088 146.94 707.772)" gradientUnits="userSpaceOnUse"><stop offset="0" stop-color="#b2b2b2"/><stop offset="1"/></linearGradient><path fill="url(#a)" d="M11.703 7.356a8.947 8.947 0 0 0-.69 4.705L12 20l3.53-4-.548-4.432a4.945 4.945 0 0 1 .362-2.52l-3.641-1.692z"/><linearGradient id="b" x1="7.878" x2="8.166" y1="15.591" y2="36.655" gradientUnits="userSpaceOnUse"><stop offset="0"/><stop offset=".354" stop-color="#b2b2b2"/><stop offset=".641" stop-color="#b2b2b2"/><stop offset="1"/></linearGradient><path fill="url(#b)" d="M6 20v13l4 4V16z"/><linearGradient id="c" x1="186" x2="186" y1="1552.088" y2="1531.657" gradientTransform="rotate(180 109 784)" gradientUnits="userSpaceOnUse"><stop offset="0"/><stop offset=".354" stop-color="#b2b2b2"/><stop offset=".641" stop-color="#b2b2b2"/><stop offset="1"/></linearGradient><path fill="url(#c)" d="M34 20v13l-4 4V16z"/><path fill="#b2b2b2" d="M34 33H6l4 4h20z"/><linearGradient id="d" x1="20" x2="20" y1="22.976" y2="16.545" gradientUnits="userSpaceOnUse"><stop offset="0" stop-color="#b2b2b2"/><stop offset="1"/></linearGradient><path fill="url(#d)" d="M18 28v-8l4-4v12z"/><path fill="#b2b2b2" d="M18 20h16l-4-4h-8zM6 20h6.01l3.526-4H10z"/></svg>