<svg width="409" height="179" fill="none" xmlns="http://www.w3.org/2000/svg"><path d="M168.511 72.133v55.499h-13.519v-22.848h-21.03v22.848h-13.519V72.133h13.519v21.741h21.03V72.133h13.519ZM181.907 78.932c-2.372 0-4.322-.685-5.85-2.056-1.476-1.423-2.214-3.162-2.214-5.217 0-2.109.738-3.848 2.214-5.218 1.528-1.423 3.478-2.135 5.85-2.135 2.319 0 4.217.712 5.692 2.135 1.529 1.37 2.293 3.11 2.293 5.218 0 2.055-.764 3.794-2.293 5.217-1.475 1.37-3.373 2.056-5.692 2.056Zm6.72 4.585v44.115h-13.519V83.517h13.519ZM219.849 116.169v11.463h-6.878c-4.902 0-8.723-1.186-11.463-3.557-2.741-2.425-4.111-6.351-4.111-11.78V94.744h-5.376V83.517h5.376V72.765h13.519v10.752h8.854v11.227h-8.854v17.709c0 1.318.316 2.266.948 2.846.633.58 1.687.87 3.163.87h4.822ZM265.802 104.863c0 1.265-.079 2.583-.237 3.953h-30.596c.211 2.741 1.081 4.849 2.609 6.325 1.581 1.423 3.505 2.135 5.771 2.135 3.374 0 5.719-1.424 7.037-4.27h14.388a19.491 19.491 0 0 1-4.032 7.827c-1.897 2.319-4.295 4.138-7.194 5.455-2.899 1.318-6.14 1.977-9.724 1.977-4.322 0-8.17-.923-11.543-2.767-3.373-1.845-6.008-4.48-7.906-7.906-1.897-3.426-2.846-7.432-2.846-12.017 0-4.586.923-8.591 2.767-12.017 1.898-3.426 4.533-6.061 7.906-7.906 3.373-1.845 7.247-2.767 11.622-2.767 4.269 0 8.064.896 11.384 2.688 3.321 1.792 5.903 4.348 7.748 7.669 1.897 3.32 2.846 7.194 2.846 11.621Zm-13.835-3.557c0-2.32-.791-4.164-2.372-5.534s-3.558-2.056-5.929-2.056c-2.267 0-4.19.659-5.772 1.977-1.528 1.317-2.477 3.188-2.846 5.613h16.919ZM267.084 105.575c0-4.586.922-8.591 2.767-12.017 1.897-3.426 4.506-6.061 7.827-7.906 3.373-1.845 7.22-2.767 11.542-2.767 5.534 0 10.146 1.45 13.835 4.348 3.743 2.899 6.193 6.984 7.353 12.254h-14.389c-1.212-3.373-3.557-5.06-7.036-5.06-2.477 0-4.454.976-5.929 2.926-1.476 1.897-2.214 4.638-2.214 8.222 0 3.584.738 6.351 2.214 8.301 1.475 1.897 3.452 2.846 5.929 2.846 3.479 0 5.824-1.686 7.036-5.06h14.389c-1.16 5.166-3.61 9.224-7.353 12.175-3.742 2.952-8.353 4.428-13.835 4.428-4.322 0-8.169-.923-11.542-2.767-3.321-1.845-5.93-4.48-7.827-7.906-1.845-3.426-2.767-7.432-2.767-12.017ZM341.594 83.043c5.06 0 9.118 1.687 12.175 5.06 3.057 3.32 4.586 7.906 4.586 13.756v25.773h-13.44v-23.955c0-2.951-.765-5.244-2.293-6.878-1.529-1.634-3.584-2.45-6.167-2.45-2.582 0-4.638.816-6.166 2.45-1.529 1.634-2.293 3.927-2.293 6.878v23.955h-13.519V69.129h13.519v20.318c1.37-1.95 3.241-3.505 5.613-4.665 2.372-1.16 5.034-1.739 7.985-1.739ZM50.443 98.622v-47.99h16v24.67a24.938 24.938 0 0 1 9-1.67c13.808 0 25 11.193 25 25v29h-16v-29a9 9 0 0 0-18-.006v29.006h-16v-29.01ZM84.443 66.632v-16h16v16h-16Z" fill="#000"/></svg>